HIERARCHY
ROOT Hips
{
	OFFSET 0.00000 0.00000 0.00000
	CHANNELS 6 Xposition Yposition Zposition Zrotation Yrotation Xrotation 
	JOINT LHipJoint
	{
		OFFSET 0 0 0
		CHANNELS 3 Zrotation Yrotation Xrotation
		JOINT LeftUpLeg
		{
			OFFSET 1.81638 -1.86202 0.89635
			CHANNELS 3 Zrotation Yrotation Xrotation
			JOINT LeftLeg
			{
				OFFSET 2.63464 -7.23861 0.00000
				CHANNELS 3 Zrotation Yrotation Xrotation
				JOINT LeftFoot
				{
					OFFSET 2.45871 -6.75336 0.00000
					CHANNELS 3 Zrotation Yrotation Xrotation
					JOINT LeftToeBase
					{
						OFFSET 0.34235 -0.94059 2.20020
						CHANNELS 3 Zrotation Yrotation Xrotation
						End Site
						{
							OFFSET 0.00000 -0.00000 1.18611
						}
					}
				}
			}
		}
	}
	JOINT RHipJoint
	{
		OFFSET 0 0 0
		CHANNELS 3 Zrotation Yrotation Xrotation
		JOINT RightUpLeg
		{
			OFFSET -1.84405 -1.86203 0.89635
			CHANNELS 3 Zrotation Yrotation Xrotation
			JOINT RightLeg
			{
				OFFSET -2.71067 -7.44751 0.00000
				CHANNELS 3 Zrotation Yrotation Xrotation
				JOINT RightFoot
				{
					OFFSET -2.47159 -6.79060 0.00000
					CHANNELS 3 Zrotation Yrotation Xrotation
					JOINT RightToeBase
					{
						OFFSET -0.26223 -0.72048 2.36007
						CHANNELS 3 Zrotation Yrotation Xrotation
						End Site
						{
							OFFSET -0.00000 -0.00000 1.23343
						}
					}
				}
			}
		}
	}
	JOINT LowerBack
	{
		OFFSET 0 0 0
		CHANNELS 3 Zrotation Yrotation Xrotation
		JOINT Spine
		{
			OFFSET 0.02089 1.99248 -0.22512
			CHANNELS 3 Zrotation Yrotation Xrotation
			JOINT Spine1
			{
				OFFSET 0.01476 2.01356 -0.03079
				CHANNELS 3 Zrotation Yrotation Xrotation
				JOINT Neck
				{
					OFFSET 0 0 0
					CHANNELS 3 Zrotation Yrotation Xrotation
					JOINT Neck1
					{
						OFFSET 0.04846 1.65098 0.06663
						CHANNELS 3 Zrotation Yrotation Xrotation
						JOINT Head
						{
							OFFSET -0.06061 1.60634 -0.07565
							CHANNELS 3 Zrotation Yrotation Xrotation
							End Site
							{
								OFFSET -0.02954 1.73562 -0.03642
							}
						}
					}
				}
				JOINT LeftShoulder
				{
					OFFSET 0 0 0
					CHANNELS 3 Zrotation Yrotation Xrotation
					JOINT LeftArm
					{
						OFFSET 3.45234 1.47051 -0.06993
						CHANNELS 3 Zrotation Yrotation Xrotation
						JOINT LeftForeArm
						{
							OFFSET 5.49313 -0.00000 0.00000
							CHANNELS 3 Zrotation Yrotation Xrotation
							JOINT LeftHand
							{
								OFFSET 3.29037 -0.00000 0.00000
								CHANNELS 3 Zrotation Yrotation Xrotation
								JOINT LeftFingerBase
								{
									OFFSET 0 0 0
									CHANNELS 3 Zrotation Yrotation Xrotation
									JOINT LeftHandIndex1
									{
										OFFSET 0.72966 -0.00000 0.00000
										CHANNELS 3 Zrotation Yrotation Xrotation
										End Site
										{
											OFFSET 0.58827 -0.00000 0.00000
										}
									}
								}
								JOINT LThumb
								{
									OFFSET 0 0 0
									CHANNELS 3 Zrotation Yrotation Xrotation
									End Site
									{
										OFFSET 0.59725 -0.00000 0.59725
									}
								}
							}
						}
					}
				}
				JOINT RightShoulder
				{
					OFFSET 0 0 0
					CHANNELS 3 Zrotation Yrotation Xrotation
					JOINT RightArm
					{
						OFFSET -3.41935 1.44327 0.20453
						CHANNELS 3 Zrotation Yrotation Xrotation
						JOINT RightForeArm
						{
							OFFSET -5.23684 -0.00000 0.00000
							CHANNELS 3 Zrotation Yrotation Xrotation
							JOINT RightHand
							{
								OFFSET -3.38251 -0.00000 0.00000
								CHANNELS 3 Zrotation Yrotation Xrotation
								JOINT RightFingerBase
								{
									OFFSET 0 0 0
									CHANNELS 3 Zrotation Yrotation Xrotation
									JOINT RightHandIndex1
									{
										OFFSET -0.69145 -0.00000 0.00000
										CHANNELS 3 Zrotation Yrotation Xrotation
										End Site
										{
											OFFSET -0.55747 -0.00000 0.00000
										}
									}
								}
								JOINT RThumb
								{
									OFFSET 0 0 0
									CHANNELS 3 Zrotation Yrotation Xrotation
									End Site
									{
										OFFSET -0.56598 -0.00000 0.56598
									}
								}
							}
						}
					}
				}
			}
		}
	}
}
MOTION
Frames: 11
Frame Time: .0083333
-32.1349 17.5681 -1.5362 0 0 0 0 0 0 -21 0 0 0 0 0 0 0 0 0 0 0 0 0 0 21 0 0 0 0 0 0 0 0 0 0 0 0 0 0 0 0 0 0 0 0 0 0 -16 0 0 21 0 0 11 0 0 0 -8 0 0 0 0 0 0 0 0 0 0 0 0 0 0 0 0 0 0 0 0 8 0 0 0 0 0 0 0 0 0 0 0 0 0 0 0 0 0
-32.1349 17.5681 -1.5362 -40.0303 81.2035 -41.6789 0.0000 0.0000 0.0000 -10.5476 -2.8222 -21.1862 3.1500 10.9340 32.0577 0.3129 -0.8851 -10.2915 0.2623 3.2948 9.1007 0.0000 0.0000 0.0000 29.9260 -1.8830 3.8093 -0.8944 -6.0277 16.8649 -0.5488 -16.0091 -27.3950 -0.0378 -1.2554 3.4519 0.9304 -2.0959 16.4329 4.0487 -2.0053 8.6313 4.0575 -0.8439 0.1034 0.1740 5.6952 -4.9247 -6.6999 8.6629 12.2630 -1.5869 3.9330 4.7976 0.0000 0.0000 0.0000 -88.7954 6.1969 18.8410 26.4287 -37.6289 -9.1482 -0.0000 -0.0000 0.3578 -1.4007 12.9263 -0.3134 -7.1250 0.0000 -0.0000 -25.2592 41.4391 2.3908 0.0000 0.0000 0.0000 70.9440 -5.1468 42.6413 -22.2346 33.2412 -6.7140 0.0000 0.0000 4.1811 -2.9333 -16.6586 0.8416 7.1250 -0.0000 -0.0000 23.0295 -45.3129 -0.1880
-32.1184 17.5699 -1.5425 -40.1129 81.2947 -41.7071 0.0000 0.0000 0.0000 -10.6446 -2.9192 -21.1665 3.1448 10.9259 32.0302 0.3092 -0.9553 -10.2105 0.2640 3.3056 9.1306 0.0000 0.0000 0.0000 29.8565 -1.8563 3.8254 -0.8927 -6.0221 16.8485 -0.5378 -16.1150 -27.4322 -0.0327 -1.1681 3.2115 0.9032 -2.0358 16.3483 3.9752 -1.9412 8.5449 3.9826 -0.8137 0.0487 -0.6030 5.8495 -3.2110 -5.2102 8.5059 9.6983 -1.2353 4.0026 3.9714 0.0000 -0.0000 0.0000 -88.5493 6.4244 18.9061 26.2151 -37.4203 -9.0180 -0.0000 -0.0000 0.5114 -1.6466 13.1184 -0.3738 -7.1250 0.0000 -0.0000 -25.5345 41.5887 2.3188 0.0000 -0.0000 0.0000 71.0616 -5.5276 42.3924 -22.1687 33.1672 -6.6779 0.0000 0.0000 4.5128 -1.2714 -16.9270 0.3702 7.1250 -0.0000 -0.0000 24.5893 -45.3585 -0.2319
-32.1028 17.5715 -1.5493 -40.2485 81.3894 -41.7964 0.0000 0.0000 0.0000 -10.7375 -3.0436 -21.1671 3.1513 10.9360 32.0643 0.3081 -0.9826 -10.1853 0.2574 3.2639 9.0143 0.0000 0.0000 0.0000 29.8006 -1.7856 3.8815 -0.8875 -6.0051 16.7992 -0.5334 -16.2165 -27.5152 -0.0373 -1.2458 3.4254 0.9093 -1.9844 16.3502 3.8846 -1.8815 8.4143 3.8751 -0.7841 -0.0999 -1.3726 6.0391 -1.3745 -3.9161 8.4736 7.4308 -0.7763 4.0814 2.7230 0.0000 -0.0000 0.0000 -88.2800 6.7225 18.9308 26.0236 -37.2320 -8.9019 -0.0000 -0.0000 0.6406 -1.9456 13.3575 -0.4496 -7.1250 0.0000 -0.0000 -25.8727 41.7747 2.2255 0.0000 -0.0000 0.0000 71.2130 -5.9363 42.1701 -22.1195 33.1118 -6.6510 0.0000 0.0000 4.5514 0.6807 -17.4011 -0.2036 7.1250 -0.0000 -0.0000 26.4867 -45.5486 -0.3861
-32.0892 17.5719 -1.5557 -40.9790 81.4479 -42.4665 0.0000 0.0000 0.0000 -10.7200 -3.2018 -21.1874 3.1581 10.9467 32.1002 0.3076 -1.0371 -10.1634 0.2552 3.2504 8.9767 0.0000 0.0000 0.0000 29.8493 -1.7367 3.9037 -0.8834 -5.9916 16.7600 -0.5289 -16.3255 -27.6056 -0.0375 -1.2498 3.4365 0.8940 -2.0708 16.4449 3.9401 -1.9846 8.5118 3.9613 -0.8344 -0.0354 -0.7582 5.7882 -3.0428 -5.0501 8.3960 9.4825 -1.1684 3.9569 3.8411 0.0000 -0.0000 0.0000 -88.4251 6.4714 18.4195 25.8262 -37.0365 -8.7827 -0.0000 -0.0000 0.8690 -2.2982 13.3731 -0.5318 -7.1250 0.0000 -0.0000 -26.1702 41.7535 2.2703 0.0000 -0.0000 0.0000 70.9483 -5.7256 42.3232 -22.2003 33.2026 -6.6952 0.0000 0.0000 4.1668 2.7130 -18.2023 -0.8480 7.1250 -0.0000 -0.0000 28.6087 -46.0065 -0.7743
-32.0743 17.5735 -1.5623 -41.1069 81.5163 -42.5204 0.0000 0.0000 0.0000 -10.7757 -3.3012 -21.2142 3.1680 10.9622 32.1527 0.3151 -1.1364 -10.2645 0.2732 3.3621 9.2885 0.0000 0.0000 0.0000 29.8027 -1.6972 3.9065 -0.8794 -5.9782 16.7213 -0.5210 -16.3929 -27.6237 -0.0457 -1.3800 3.7949 0.8694 -2.0350 16.4573 3.8919 -1.9448 8.4517 3.9189 -0.8152 -0.1099 -1.1063 5.8286 -2.3025 -4.4578 8.3223 8.5170 -0.9535 3.9623 3.3073 0.0000 0.0000 0.0000 -88.2996 6.6128 18.2460 25.7240 -36.9348 -8.7213 -0.0000 -0.0000 0.9387 -2.4448 13.6959 -0.5792 -7.1250 0.0000 -0.0000 -26.4171 42.0287 2.0998 0.0000 0.0000 0.0000 70.9917 -5.8966 42.2917 -22.0581 33.0426 -6.6175 0.0000 0.0000 3.8625 3.9369 -18.3824 -1.2433 7.1250 -0.0000 -0.0000 29.7431 -46.0087 -0.8127
-32.0595 17.5745 -1.5690 -41.4091 81.5782 -42.7560 0.0000 0.0000 0.0000 -10.8141 -3.4045 -21.2536 3.1807 10.9820 32.2192 0.3181 -1.2229 -10.2951 0.2724 3.3574 9.2753 0.0000 0.0000 0.0000 29.7828 -1.6589 3.9198 -0.8750 -5.9639 16.6797 -0.5144 -16.4715 -27.6650 -0.0494 -1.4344 3.9449 0.8570 -2.0328 16.4870 3.8674 -1.9437 8.4318 3.9010 -0.8146 -0.1473 -1.2217 5.8018 -2.1261 -4.2870 8.2547 8.2649 -0.8905 3.9387 3.1704 0.0000 0.0000 0.0000 -88.2284 6.6597 18.0147 25.5866 -36.7976 -8.6389 -0.0000 -0.0000 1.0764 -2.6906 13.9701 -0.6500 -7.1250 0.0000 -0.0000 -26.7290 42.2492 1.9702 0.0000 0.0000 0.0000 70.9772 -5.9591 42.2543 -21.9524 32.9232 -6.5600 0.0000 0.0000 3.6778 5.4470 -18.7426 -1.7550 7.1250 -0.0000 -0.0000 31.2073 -46.1275 -0.9624
-32.0449 17.5754 -1.5760 -41.6958 81.6337 -42.9718 0.0000 0.0000 0.0000 -10.8512 -3.4921 -21.3013 3.1928 11.0008 32.2826 0.3202 -1.3048 -10.3116 0.2683 3.3322 9.2050 0.0000 0.0000 0.0000 29.7625 -1.6231 3.9161 -0.8728 -5.9563 16.6578 -0.5111 -16.5336 -27.7117 -0.0529 -1.4839 4.0813 0.8456 -2.0283 16.5193 3.8449 -1.9390 8.4129 3.8843 -0.8121 -0.1853 -1.3140 5.7659 -2.0021 -4.1505 8.1825 8.0706 -0.8404 3.9102 3.0672 0.0000 -0.0000 0.0000 -88.1609 6.7096 17.7877 25.4713 -36.6819 -8.5699 -0.0000 -0.0000 1.2031 -2.9396 14.2888 -0.7261 -7.1250 0.0000 -0.0000 -27.0637 42.5082 1.8101 0.0000 -0.0000 0.0000 70.9635 -6.0041 42.2262 -21.8263 32.7802 -6.4915 0.0000 0.0000 3.4786 6.8189 -19.0780 -2.2382 7.1250 -0.0000 -0.0000 32.5393 -46.2370 -1.1111
-32.0303 17.5761 -1.5831 -41.9424 81.6806 -43.1416 0.0000 0.0000 0.0000 -10.8881 -3.5608 -21.3603 3.2048 11.0194 32.3452 0.3219 -1.3859 -10.3215 0.2588 3.2728 9.0393 0.0000 0.0000 0.0000 29.7399 -1.5921 3.9013 -0.8709 -5.9501 16.6397 -0.5085 -16.5833 -27.7498 -0.0552 -1.5157 4.1689 0.8329 -2.0248 16.5529 3.8256 -1.9355 8.4012 3.8719 -0.8103 -0.2158 -1.3492 5.7093 -2.0187 -4.1128 8.1039 8.0468 -0.8250 3.8716 3.0570 -0.0000 0.0000 0.0000 -88.1025 6.7494 17.5641 25.3754 -36.5853 -8.5127 -0.0000 -0.0000 1.3123 -3.1936 14.6633 -0.8092 -7.1250 0.0000 -0.0000 -27.4283 42.8151 1.6114 -0.0000 0.0000 0.0000 70.9376 -6.0171 42.2278 -21.6842 32.6183 -6.4148 0.0000 0.0000 3.2901 8.0325 -19.3850 -2.6818 7.1250 -0.0000 -0.0000 33.7210 -46.3380 -1.2563
-32.0157 17.5766 -1.5905 -42.0976 81.7193 -43.2167 0.0000 0.0000 0.0000 -10.9310 -3.6090 -21.4279 3.2169 11.0382 32.4088 0.3245 -1.4708 -10.3469 0.2416 3.1629 8.7327 0.0000 0.0000 0.0000 29.7084 -1.5623 3.8775 -0.8699 -5.9468 16.6301 -0.5066 -16.6191 -27.7775 -0.0569 -1.5393 4.2342 0.8193 -2.0083 16.5790 3.8007 -1.9163 8.3809 3.8511 -0.8007 -0.2529 -1.4421 5.6672 -1.9044 -3.9707 8.0238 7.8514 -0.7730 3.8390 2.9557 -0.0000 -0.0000 0.0000 -88.0197 6.8208 17.4041 25.3000 -36.5090 -8.4677 -0.0000 -0.0000 1.3849 -3.4520 15.0756 -0.8989 -7.1250 0.0000 -0.0000 -27.8163 43.1537 1.3835 -0.0000 -0.0000 0.0000 70.9201 -6.0644 42.2443 -21.5418 32.4554 -6.3382 0.0000 0.0000 3.1385 9.0810 -19.6580 -3.0778 7.1250 -0.0000 -0.0000 34.7443 -46.4282 -1.3923
-32.0011 17.5771 -1.5979 -42.1860 81.7467 -43.2223 0.0000 0.0000 0.0000 -10.9742 -3.6411 -21.5015 3.2293 11.0572 32.4731 0.3269 -1.5370 -10.3719 0.2208 3.0247 8.3475 0.0000 0.0000 0.0000 29.6736 -1.5350 3.8471 -0.8694 -5.9452 16.6255 -0.5056 -16.6407 -27.7946 -0.0578 -1.5512 4.2668 0.8023 -1.9906 16.6051 3.7802 -1.8954 8.3701 3.8367 -0.7904 -0.2796 -1.4766 5.6040 -1.9287 -3.9343 7.9367 7.8267 -0.7581 3.7960 2.9468 0.0000 -0.0000 0.0000 -87.9417 6.8846 17.2770 25.2421 -36.4504 -8.4333 -0.0000 -0.0000 1.4215 -3.7242 15.4901 -0.9959 -7.1250 0.0000 -0.0000 -28.2209 43.4911 1.1494 0.0000 -0.0000 0.0000 70.8715 -6.1024 42.3228 -21.4034 32.2962 -6.2641 0.0000 0.0000 3.0486 9.9429 -19.8547 -3.4072 7.1250 -0.0000 -0.0000 35.5685 -46.4765 -1.4833
